<?xml version="1.0" standalone="no"?>
<!DOCTYPE svg PUBLIC "-//W3C//DTD SVG 20010904//EN"
 "http://www.w3.org/TR/2001/REC-SVG-20010904/DTD/svg10.dtd">
<svg version="1.0" xmlns="http://www.w3.org/2000/svg"
 width="450.000000pt" height="450.000000pt" viewBox="0 0 450.000000 450.000000"
 preserveAspectRatio="xMidYMid meet">

<g transform="translate(0.000000,450.000000) scale(0.100000,-0.100000)"
fill="#000000" stroke="none">
<path d="M1705 3553 c-46 -10 -46 -12 -4 -70 23 -32 43 -59 45 -61 4 -6 124
20 124 27 0 6 -137 112 -142 110 -2 -1 -12 -3 -23 -6z"/>
<path d="M1805 3394 l-199 -44 -36 35 c-26 26 -41 33 -58 29 -27 -8 -27 -6 -2
-46 11 -18 20 -43 20 -55 0 -37 26 -42 138 -25 56 8 104 13 108 10 3 -3 -4
-43 -16 -88 -12 -45 -20 -84 -18 -85 2 -1 18 0 35 2 29 5 40 17 93 103 59 95
62 99 103 105 105 16 146 48 111 86 -24 26 -48 24 -279 -27z"/>
<path d="M2186 3427 c-10 -7 -17 -22 -14 -33 3 -16 13 -19 64 -22 43 -2 64 1
73 11 18 23 3 44 -37 51 -54 9 -66 8 -86 -7z"/>
<path d="M2467 3414 c-4 -4 -7 -18 -7 -30 0 -26 18 -34 90 -37 39 -2 45 1 48
19 2 11 -3 25 -10 31 -16 14 -111 27 -121 17z"/>
<path d="M2744 3345 c-11 -27 4 -43 54 -59 57 -19 82 -13 82 19 0 19 -9 26
-47 39 -58 20 -82 20 -89 1z"/>
<path d="M1359 3222 c-132 -67 -340 -201 -449 -289 -97 -79 -253 -239 -248
-254 2 -7 11 -17 20 -23 13 -8 36 10 120 95 178 180 355 305 593 421 l146 70
-25 19 c-13 10 -28 19 -33 19 -5 0 -60 -26 -124 -58z"/>
<path d="M3025 3256 c-29 -21 -14 -47 42 -71 43 -19 55 -21 69 -11 26 19 11
42 -44 70 -41 21 -52 23 -67 12z"/>
<path d="M3269 3114 c-12 -14 -9 -20 19 -44 57 -47 80 -56 99 -38 22 22 11 42
-36 73 -47 29 -64 31 -82 9z"/>
<path d="M3512 2958 c-20 -20 -14 -35 30 -73 45 -38 64 -41 82 -12 9 16 4 25
-34 58 -48 42 -59 46 -78 27z"/>
<path d="M3726 2764 c-22 -22 -21 -25 29 -74 37 -36 49 -43 62 -34 27 17 26
30 -8 68 -44 50 -64 60 -83 40z"/>
<path d="M452 2585 c-42 -35 -49 -75 -23 -128 23 -46 78 -117 91 -117 16 0 90
112 96 147 7 40 -10 88 -40 108 -33 24 -90 19 -124 -10z m98 -50 c16 -19 9
-45 -17 -62 -19 -13 -24 -12 -42 6 -25 25 -26 35 -5 55 19 20 48 20 64 1z"/>
<path d="M3924 2592 c-27 -21 -44 -54 -44 -84 0 -27 33 -89 72 -139 l27 -34
31 30 c45 43 83 127 75 164 -15 67 -110 105 -161 63z m90 -58 c21 -20 20 -30
-5 -55 -18 -18 -23 -19 -42 -6 -26 17 -33 43 -17 62 16 19 45 19 64 -1z"/>
<path d="M2803 2440 c-26 -11 -53 -59 -53 -95 0 -23 4 -25 44 -25 29 0 46 5
49 15 5 12 13 11 53 -6 37 -17 52 -19 70 -10 28 12 50 45 59 89 l7 32 -45 0
c-30 0 -47 -5 -51 -15 -4 -12 -11 -12 -48 5 -48 22 -54 22 -85 10z"/>
<path d="M834 2256 c-94 -29 -177 -114 -211 -212 -23 -66 -14 -213 16 -276 76
-157 245 -232 393 -175 127 49 181 203 114 323 l-22 39 -97 3 -97 3 0 -76 0
-75 35 0 c28 0 35 -4 35 -19 0 -24 -36 -34 -80 -21 -82 24 -114 72 -108 162 4
51 9 64 40 94 48 49 99 59 181 37 15 -4 17 5 17 95 l0 100 -31 6 c-50 10 -140
6 -185 -8z"/>
<path d="M1874 2251 c-22 -10 -56 -37 -76 -60 -68 -80 -74 -179 -19 -290 35
-69 38 -93 14 -116 -12 -13 -26 -15 -55 -11 l-38 6 0 -90 c0 -82 2 -90 23
-102 35 -20 136 -15 182 9 84 44 125 114 125 212 0 49 -6 71 -35 125 -19 37
-35 74 -35 84 0 32 25 55 59 55 l31 0 0 93 c0 75 -3 93 -16 98 -32 12 -120 5
-160 -13z"/>
<path d="M2798 2256 c-85 -31 -131 -86 -148 -175 -5 -30 -10 -152 -10 -272 l0
-219 100 0 100 0 0 80 0 80 30 0 30 0 0 85 0 85 -30 0 -30 0 0 60 c0 47 4 64
20 80 24 24 34 25 54 4 14 -13 16 -50 16 -245 l0 -229 101 0 101 0 -4 263 c-3
252 -4 264 -27 310 -36 73 -83 100 -184 104 -53 2 -95 -2 -119 -11z"/>
<path d="M3455 2257 c-22 -8 -51 -19 -64 -27 -46 -24 -123 -104 -149 -155 -24
-44 -27 -61 -27 -150 0 -84 4 -107 23 -147 37 -74 96 -134 169 -170 58 -28 75
-32 147 -31 91 1 145 17 210 64 92 65 138 160 139 284 1 66 -4 90 -25 137 -35
75 -97 141 -166 175 -65 32 -190 42 -257 20z m177 -203 c127 -65 71 -284 -72
-284 -130 0 -196 155 -108 255 47 54 111 64 180 29z"/>
<path d="M1377 2246 c-52 -14 -89 -44 -115 -91 -14 -25 -17 -63 -17 -230 0
-222 4 -241 67 -289 47 -34 99 -46 211 -46 l97 0 0 95 0 95 -79 0 c-90 0 -120
15 -101 51 9 16 22 19 90 19 l80 0 0 75 0 74 -77 3 c-68 3 -78 6 -81 22 -6 31
26 46 100 46 l68 0 0 95 0 95 -97 -1 c-54 0 -120 -6 -146 -13z"/>
<path d="M2090 2165 l0 -94 73 -3 72 -3 3 -237 2 -238 95 0 95 0 2 238 3 237
78 3 77 3 0 94 0 95 -250 0 -250 0 0 -95z"/>
<path d="M0 745 c0 -13 257 -15 2250 -15 1993 0 2250 2 2250 15 0 13 -257 15
-2250 15 -1993 0 -2250 -2 -2250 -15z"/>
</g>
</svg>
